<?xml version="1.0" encoding="UTF-8" standalone="no"?><!-- Generator: Gravit.io --><svg xmlns="http://www.w3.org/2000/svg" xmlns:xlink="http://www.w3.org/1999/xlink" style="isolation:isolate" viewBox="0 0 232 35" width="232pt" height="35pt"><defs><clipPath id="_clipPath_LSfJ95ZD0kuNHJx8VDtUdJlhlk3SGuOs"><rect width="232" height="35"/></clipPath></defs><g clip-path="url(#_clipPath_LSfJ95ZD0kuNHJx8VDtUdJlhlk3SGuOs)"><rect width="232" height="35" style="fill:rgb(0,0,0)" fill-opacity="0"/><path d=" M 4.836 17.523 C 4.836 19.832 5.38 21.96 6.466 23.902 C 7.552 25.844 9.054 27.363 10.967 28.467 C 12.877 29.567 15.008 30.118 17.352 30.118 C 19.078 30.118 20.641 29.902 22.047 29.471 C 23.451 29.038 24.665 28.513 25.69 27.896 C 26.717 27.279 27.722 26.548 28.709 25.698 L 28.709 31.303 C 27.521 32.356 25.966 33.239 24.048 33.943 C 22.129 34.645 19.896 35 17.352 35 C 14.158 35 11.235 34.234 8.583 32.712 C 5.931 31.183 3.837 29.081 2.303 26.406 C 0.769 23.73 0 20.772 0 17.535 C 0 15.098 0.437 12.807 1.307 10.664 C 2.178 8.519 3.409 6.658 4.996 5.077 C 6.585 3.496 8.44 2.277 10.562 1.421 C 12.682 0.565 14.944 0.137 17.352 0.137 C 20.036 0.137 22.272 0.454 24.059 1.086 C 25.847 1.718 27.398 2.577 28.709 3.654 L 28.709 8.996 C 27.259 7.718 25.558 6.711 23.608 5.98 C 21.657 5.246 19.573 4.879 17.352 4.879 C 15.023 4.879 12.897 5.427 10.979 6.521 C 9.057 7.616 7.552 9.13 6.466 11.063 C 5.38 12.996 4.836 15.148 4.836 17.523 Z " fill="rgb(255,255,255)"/><path d=" M 66.095 17.488 C 66.095 19.94 65.658 22.225 64.788 24.347 C 63.917 26.467 62.686 28.33 61.099 29.931 C 59.51 31.538 57.643 32.782 55.501 33.669 C 53.355 34.555 51.096 35 48.723 35 C 46.347 35 44.103 34.56 41.989 33.681 C 39.878 32.802 38.012 31.55 36.391 29.92 C 34.772 28.295 33.532 26.414 32.667 24.277 C 31.802 22.141 31.372 19.879 31.372 17.488 C 31.372 15.098 31.802 12.833 32.667 10.699 C 33.532 8.562 34.775 6.676 36.402 5.042 C 38.03 3.406 39.881 2.157 41.954 1.293 C 44.03 0.431 46.283 0 48.723 0 C 51.16 0 53.431 0.434 55.536 1.304 C 57.64 2.175 59.486 3.415 61.076 5.019 C 62.663 6.623 63.897 8.489 64.776 10.618 C 65.655 12.746 66.095 15.034 66.095 17.488 Z  M 48.723 30.118 C 51.067 30.118 53.198 29.567 55.116 28.467 C 57.038 27.363 58.543 25.844 59.629 23.902 C 60.718 21.96 61.259 19.817 61.259 17.477 C 61.259 15.148 60.712 13.011 59.617 11.063 C 58.523 9.112 57.015 7.596 55.093 6.51 C 53.174 5.424 51.049 4.879 48.723 4.879 C 46.394 4.879 44.272 5.424 42.359 6.51 C 40.446 7.596 38.944 9.112 37.849 11.063 C 36.755 13.011 36.207 15.148 36.207 17.477 C 36.207 19.817 36.749 21.96 37.838 23.902 C 38.923 25.844 40.426 27.363 42.339 28.467 C 44.248 29.567 46.377 30.118 48.723 30.118 Z " fill="rgb(255,255,255)"/><path d=" M 91.659 25.862 L 91.659 0.367 L 96.495 0.367 L 96.495 34.538 L 91.799 34.538 L 74.078 8.95 L 74.078 34.538 L 69.242 34.538 L 69.242 0.367 L 73.985 0.367 L 91.659 25.862 Z " fill="rgb(255,255,255)"/><path d=" M 115.647 6.915 C 114.366 5.684 112.662 5.066 110.534 5.066 C 109.145 5.066 108.062 5.445 107.282 6.211 C 106.505 6.973 106.118 7.917 106.118 9.043 C 106.118 9.815 106.278 10.481 106.601 11.043 C 106.924 11.608 107.445 12.126 108.164 12.595 C 108.88 13.064 109.841 13.538 111.044 14.016 C 117.306 16.453 120.436 20.118 120.436 25.006 C 120.436 27.026 119.987 28.776 119.093 30.258 C 118.2 31.737 116.974 32.869 115.416 33.647 C 113.856 34.424 112.144 34.814 110.281 34.814 C 107.719 34.814 105.556 34.305 103.792 33.289 C 102.024 32.27 100.656 31.027 99.684 29.562 L 103.177 26.211 C 103.873 27.303 104.802 28.2 105.966 28.893 C 107.128 29.586 108.508 29.932 110.094 29.932 C 111.067 29.932 111.975 29.716 112.825 29.286 C 113.673 28.852 114.348 28.258 114.849 27.504 C 115.349 26.747 115.6 25.914 115.6 25.006 C 115.6 22.339 113.48 20.164 109.239 18.482 C 108.065 17.99 106.997 17.477 106.036 16.942 C 105.07 16.412 104.234 15.792 103.524 15.081 C 102.816 14.371 102.263 13.512 101.87 12.502 C 101.477 11.492 101.282 10.339 101.282 9.043 C 101.282 7.393 101.675 5.89 102.461 4.533 C 103.247 3.177 104.342 2.111 105.745 1.34 C 107.148 0.571 108.744 0.184 110.534 0.184 C 112.261 0.184 113.821 0.455 115.218 0.993 C 116.613 1.532 117.798 2.257 118.77 3.168 L 115.647 6.915 Z " fill="rgb(255,255,255)"/><path d=" M 128.395 34.538 L 123.559 34.538 L 123.559 0.368 L 128.395 0.368 L 128.395 34.538 Z " fill="rgb(255,255,255)"/><path d=" M 147.252 6.915 C 145.971 5.684 144.268 5.066 142.139 5.066 C 140.751 5.066 139.668 5.445 138.887 6.211 C 138.11 6.973 137.723 7.917 137.723 9.043 C 137.723 9.815 137.883 10.481 138.206 11.043 C 138.529 11.608 139.051 12.126 139.77 12.595 C 140.486 13.064 141.444 13.538 142.649 14.016 C 148.911 16.453 152.041 20.118 152.041 25.006 C 152.041 27.026 151.593 28.776 150.699 30.258 C 149.805 31.737 148.579 32.869 147.022 33.647 C 145.461 34.424 143.749 34.814 141.886 34.814 C 139.324 34.814 137.161 34.305 135.397 33.289 C 133.63 32.27 132.261 31.027 131.289 29.562 L 134.783 26.211 C 135.478 27.303 136.404 28.2 137.572 28.893 C 138.733 29.586 140.113 29.932 141.7 29.932 C 142.672 29.932 143.581 29.716 144.431 29.286 C 145.278 28.852 145.953 28.258 146.454 27.504 C 146.955 26.747 147.205 25.914 147.205 25.006 C 147.205 22.339 145.086 20.164 140.844 18.482 C 139.671 17.99 138.602 17.477 137.642 16.942 C 136.675 16.412 135.839 15.792 135.129 15.081 C 134.422 14.371 133.868 13.512 133.475 12.502 C 133.082 11.492 132.887 10.339 132.887 9.043 C 132.887 7.393 133.28 5.89 134.066 4.533 C 134.852 3.177 135.947 2.111 137.35 1.34 C 138.754 0.571 140.349 0.184 142.139 0.184 C 143.866 0.184 145.426 0.455 146.824 0.993 C 148.218 1.532 149.403 2.257 150.376 3.168 L 147.252 6.915 Z " fill="rgb(255,255,255)"/><path d=" M 170.986 0.368 L 170.986 5.251 L 164.025 5.251 L 164.025 34.539 L 159.189 34.539 L 159.189 5.251 L 152.132 5.251 L 152.132 0.368 L 170.986 0.368 Z " fill="rgb(255,255,255)"/><path d=" M 189.636 5.251 L 178.229 5.251 L 178.229 14.78 L 189.636 14.78 L 189.636 19.662 L 178.229 19.662 L 178.229 29.657 L 189.636 29.657 L 189.636 34.536 L 173.396 34.536 L 173.396 0.369 L 189.636 0.369 L 189.636 5.251 Z " fill="rgb(255,255,255)"/><path d=" M 221.192 11.612 L 212.725 34.536 L 210.574 34.536 L 202.105 11.612 L 196.23 34.536 L 191.257 34.536 L 200.023 0.369 L 203.007 0.369 L 211.683 23.595 L 220.242 0.369 L 223.273 0.369 L 232.042 34.536 L 227.02 34.536 L 221.192 11.612 Z " fill="rgb(255,255,255)"/></g></svg>